# xmcd
#
# Track frame offsets: 
#        150
#        14720
#        34500
#        48979
#        61324
#        78726
#        91379
#        113020
#        131089
#        144784
#        155710
#        185109
#        198864
#        219644
#        240772
#        253833
#
# Disc length: 3709 seconds
#
# Revision: 0
# Processed by: cddbd v1.5.2PL0 Copyright (c) Steve Scherf et al.
# Submitted via: ExactAudioCopyFreeDBPlugin 1.0
#
DISCID=de0e7b10
DTITLE=Nico Wayne Toussaint - Lonely Number
DYEAR=2011
DGENRE=Blues
TTITLE0=Lonely Number
TTITLE1=One Fine Day
TTITLE2=Time To Party
TTITLE3=Time To Cut You Loose
TTITLE4=How Long To Heal
TTITLE5=Where was I
TTITLE6=My Own Medicine
TTITLE7=High Class In Disguise
TTITLE8=I Love You Through And Through
TTITLE9=Waltering In Montreal
TTITLE10=Deep Down In Florida
TTITLE11=Moliendo Cafe
TTITLE12=My One Last Thing
TTITLE13=She Comes And Go
TTITLE14=Memphis Hat
TTITLE15=Dealing With The Devil
EXTD=
EXTT0=
EXTT1=
EXTT2=
EXTT3=
EXTT4=
EXTT5=
EXTT6=
EXTT7=
EXTT8=
EXTT9=
EXTT10=
EXTT11=
EXTT12=
EXTT13=
EXTT14=
EXTT15=
PLAYORDER=
